<svg width="14" height="14" viewBox="0 0 14 14" fill="none" xmlns="http://www.w3.org/2000/svg">
<path d="M9.33332 7.89121V2.33332C9.33332 1.04467 8.28866 0 7 0C5.71134 0 4.66668 1.04467 4.66668 2.33332V7.89119C3.95063 8.53207 3.5 9.46343 3.5 10.5C3.5 12.433 5.06702 14 7 14C8.93298 14 10.5 12.433 10.5 10.5C10.5 9.46343 10.0494 8.53207 9.33332 7.89121ZM7 12.8333C5.71134 12.8333 4.66668 11.7887 4.66668 10.5C4.66668 9.82633 4.95217 9.20139 5.44474 8.76053L5.83335 8.41271V2.33332C5.83335 1.689 6.3557 1.16665 7.00003 1.16665C7.64436 1.16665 8.1667 1.68897 8.1667 2.33332V8.41271L8.55531 8.76053C9.04788 9.20139 9.33338 9.8263 9.33338 10.5C9.33332 11.7887 8.28866 12.8333 7 12.8333Z" fill="#FF1616"/>
<path d="M7.58368 4.66669H6.41699V11.6667H7.58368V4.66669Z" fill="#FF1616"/>
<path d="M7 12.25C7.9665 12.25 8.75 11.4665 8.75 10.5C8.75 9.5335 7.9665 8.75 7 8.75C6.0335 8.75 5.25 9.5335 5.25 10.5C5.25 11.4665 6.0335 12.25 7 12.25Z" fill="#FF1616"/>
</svg>
