<svg width="20" height="25" viewBox="0 0 20 25" fill="none" xmlns="http://www.w3.org/2000/svg">
<path fill-rule="evenodd" clip-rule="evenodd" d="M0 19.0127V5.32354C0 3.44509 1.65243 0 5.51126 0H11.5927C13.8808 0 19.9546 2.1393 19.9546 8.93595C19.9204 14.0933 15.5153 17.2036 11.2126 17.6818V19.583C11.2126 20.8808 9.45771 24.7165 5.70131 24.7165C1.9449 24.7165 0 21.0618 0 19.0127ZM6.08139 2.47165H11.4026C14.5444 2.47165 17.294 5.78916 17.294 8.5557C17.294 12.3126 14.5934 14.781 11.2126 15.02V5.7038C11.2126 4.51018 9.09662 3.97783 8.742 5.7038C8.69354 5.83289 8.24333 8.5557 5.51126 8.5557C2.26756 8.5557 2.47057 5.51367 2.47057 5.51367C2.47057 5.51367 2.47057 2.47165 6.08139 2.47165ZM2.47057 10.0767C2.47057 10.0767 5.44437 12.3651 8.55196 10.0767V19.2028C8.55196 20.569 7.37464 22.0547 5.70131 22.0547C4.02797 22.0547 2.66061 20.9493 2.66061 19.583C2.66061 18.2168 2.47057 10.0767 2.47057 10.0767Z" fill="white"/>
</svg>
