<svg width="15" height="15" viewBox="0 0 15 15" fill="none" xmlns="http://www.w3.org/2000/svg">
<path d="M14.5205 13.6626L10.9504 9.94962C11.8683 8.85844 12.3713 7.48552 12.3713 6.05624C12.3713 2.71688 9.65439 0 6.31503 0C2.97567 0 0.258789 2.71688 0.258789 6.05624C0.258789 9.3956 2.97567 12.1125 6.31503 12.1125C7.56868 12.1125 8.76333 11.7344 9.78473 11.0166L13.3819 14.7578C13.5322 14.9139 13.7345 15 13.9512 15C14.1563 15 14.3509 14.9218 14.4986 14.7796C14.8125 14.4776 14.8225 13.9768 14.5205 13.6626ZM6.31503 1.57989C8.78335 1.57989 10.7914 3.58793 10.7914 6.05624C10.7914 8.52456 8.78335 10.5326 6.31503 10.5326C3.84672 10.5326 1.83868 8.52456 1.83868 6.05624C1.83868 3.58793 3.84672 1.57989 6.31503 1.57989Z" fill="#949494"/>
</svg>
