<svg width="18" height="18" viewBox="0 0 18 18" fill="none" xmlns="http://www.w3.org/2000/svg">
<path d="M13.9346 11.2077C12.885 11.2077 11.9454 11.6865 11.3219 12.437L7.26632 10.1344C7.39243 9.77952 7.46175 9.39792 7.46175 9.00024C7.46175 8.60263 7.39243 8.22103 7.26632 7.86613L11.3216 5.56297C11.945 6.31374 12.8847 6.7927 13.9344 6.7927C15.8067 6.7927 17.3299 5.26891 17.3299 3.39583C17.3301 1.52332 15.8068 0 13.9346 0C12.062 0 10.5386 1.52332 10.5386 3.39576C10.5386 3.79344 10.6079 4.17512 10.7341 4.5301L6.67858 6.83334C6.0552 6.08297 5.11566 5.60432 4.06631 5.60432C2.19356 5.60432 0.669922 7.12764 0.669922 9.00016C0.669922 10.8726 2.19356 12.3959 4.06631 12.3959C5.11566 12.3959 6.05512 11.9173 6.6785 11.167L10.7341 13.4697C10.6079 13.8246 10.5386 14.2064 10.5386 14.6042C10.5386 16.4766 12.062 17.9999 13.9345 17.9999C15.8068 17.9999 17.33 16.4765 17.33 14.6042C17.3301 12.7314 15.8068 11.2077 13.9346 11.2077ZM13.9346 1.1883C15.1516 1.1883 16.1418 2.17854 16.1418 3.39576C16.1418 4.6136 15.1516 5.60432 13.9346 5.60432C12.7173 5.60432 11.7269 4.6136 11.7269 3.39576C11.7269 2.17854 12.7173 1.1883 13.9346 1.1883ZM4.06639 11.2077C2.84886 11.2077 1.8583 10.2174 1.8583 9.00024C1.8583 7.78295 2.84886 6.7927 4.06639 6.7927C5.28344 6.7927 6.27353 7.78295 6.27353 9.00024C6.27353 10.2174 5.28337 11.2077 4.06639 11.2077ZM13.9346 16.8117C12.7173 16.8117 11.7269 15.8214 11.7269 14.6042C11.7269 13.3866 12.7173 12.396 13.9346 12.396C15.1516 12.396 16.1418 13.3866 16.1418 14.6042C16.1418 15.8214 15.1516 16.8117 13.9346 16.8117Z" fill="black"/>
</svg>
