<svg width="23" height="23" viewBox="0 0 23 23" fill="none" xmlns="http://www.w3.org/2000/svg">
<circle cx="11.5" cy="11.5" r="11.5" fill="white"/>
<path d="M11.5003 11.0213C10.8165 11.0213 10.148 10.8185 9.57949 10.4386C9.01094 10.0587 8.56781 9.51879 8.30614 8.88705C8.04447 8.25532 7.976 7.56017 8.1094 6.88952C8.2428 6.21888 8.57208 5.60285 9.05559 5.11934C9.5391 4.63583 10.1551 4.30655 10.8258 4.17315C11.4964 4.03975 12.1916 4.10822 12.8233 4.36989C13.455 4.63157 13.995 5.07469 14.3749 5.64324C14.7548 6.21179 14.9575 6.88022 14.9575 7.56401C14.9565 8.48062 14.5919 9.3594 13.9438 10.0075C13.2957 10.6557 12.4169 11.0203 11.5003 11.0213ZM11.5003 5.17858C11.0284 5.17858 10.5671 5.31852 10.1747 5.5807C9.78234 5.84288 9.47654 6.21552 9.29597 6.65151C9.1154 7.08749 9.06818 7.56723 9.16027 8.03005C9.25237 8.49287 9.47964 8.91799 9.81335 9.25164C10.1471 9.58529 10.5722 9.81249 11.0351 9.9045C11.4979 9.99651 11.9776 9.9492 12.4136 9.76856C12.8495 9.58791 13.2221 9.28204 13.4842 8.88964C13.7463 8.49723 13.8862 8.0359 13.8861 7.56401C13.8853 6.93152 13.6337 6.32518 13.1864 5.87798C12.7391 5.43079 12.1327 5.17926 11.5003 5.17858Z" fill="#FF1616"/>
<path d="M17.4906 18.8929C17.3645 18.8927 17.2425 18.848 17.146 18.7667C17.0496 18.6854 16.985 18.5727 16.9635 18.4484C16.7756 17.1405 16.117 15.946 15.1113 15.0891C14.1055 14.2321 12.8216 13.7715 11.5005 13.7937C10.1793 13.7715 8.89543 14.2321 7.88966 15.0891C6.88389 15.946 6.22532 17.1405 6.03747 18.4484C6.01326 18.5885 5.93441 18.7132 5.81827 18.7951C5.70213 18.877 5.55822 18.9094 5.41818 18.8852C5.27815 18.8609 5.15347 18.7821 5.07157 18.666C4.98967 18.5498 4.95726 18.4059 4.98147 18.2659C5.2071 16.7067 5.99375 15.2834 7.19391 14.2628C8.39406 13.2422 9.92529 12.6945 11.5005 12.7223C13.0756 12.6945 14.6069 13.2422 15.807 14.2628C17.0072 15.2834 17.7938 16.7067 18.0195 18.2659C18.0314 18.3352 18.0296 18.4062 18.0141 18.4748C17.9986 18.5435 17.9697 18.6084 17.9291 18.6658C17.8885 18.7233 17.837 18.7722 17.7775 18.8098C17.718 18.8473 17.6517 18.8728 17.5823 18.8847C17.5521 18.8902 17.5214 18.8929 17.4906 18.8929Z" fill="#FF1616"/>
</svg>
